<svg width="13" height="13" viewBox="0 0 13 13" fill="none" xmlns="http://www.w3.org/2000/svg">
<path d="M5.62243 0.284532C6.06605 -0.0948441 6.79256 -0.0948441 7.24261 0.284532L8.25844 1.15903C8.45132 1.32621 8.81136 1.46124 9.06854 1.46124H10.1615C10.843 1.46124 11.4024 2.02066 11.4024 2.70225V3.79537C11.4024 4.04615 11.5374 4.41266 11.7045 4.60557L12.5789 5.62152C12.9583 6.0652 12.9583 6.7918 12.5789 7.24191L11.7045 8.25787C11.5374 8.45077 11.4024 8.81086 11.4024 9.06806V10.1612C11.4024 10.8428 10.843 11.4022 10.1615 11.4022H9.06854C8.81779 11.4022 8.45132 11.5372 8.25844 11.7044L7.24261 12.5789C6.79899 12.9583 6.07248 12.9583 5.62243 12.5789L4.6066 11.7044C4.41372 11.5372 4.05368 11.4022 3.7965 11.4022H2.68423C2.00273 11.4022 1.44338 10.8428 1.44338 10.1612V9.06163C1.44338 8.81086 1.30836 8.45077 1.14763 8.25787L0.279675 7.23548C-0.0932249 6.7918 -0.0932249 6.07163 0.279675 5.62795L1.14763 4.60557C1.30836 4.41266 1.44338 4.05258 1.44338 3.8018V2.69582C1.44338 2.01423 2.00273 1.45481 2.68423 1.45481H3.7965C4.04725 1.45481 4.41372 1.31978 4.6066 1.1526L5.62243 0.284532Z" fill="#621317"/>
<path d="M4.1189 6.42644L5.65498 7.96908L8.73351 4.88379" stroke="white" stroke-width="1.36691" stroke-linecap="round" stroke-linejoin="round"/>
</svg>
