<svg width="24" height="24" viewBox="0 0 24 24" fill="none" xmlns="http://www.w3.org/2000/svg">
<path d="M10.7499 2.45031C11.4399 1.86031 12.5699 1.86031 13.2699 2.45031L14.8499 3.81031C15.1499 4.07031 15.7099 4.28031 16.1099 4.28031H17.8099C18.8699 4.28031 19.7399 5.15031 19.7399 6.21031V7.91031C19.7399 8.30031 19.9499 8.87031 20.2099 9.17031L21.5699 10.7503C22.1599 11.4403 22.1599 12.5703 21.5699 13.2703L20.2099 14.8503C19.9499 15.1503 19.7399 15.7103 19.7399 16.1103V17.8103C19.7399 18.8703 18.8699 19.7403 17.8099 19.7403H16.1099C15.7199 19.7403 15.1499 19.9503 14.8499 20.2103L13.2699 21.5703C12.5799 22.1603 11.4499 22.1603 10.7499 21.5703L9.16988 20.2103C8.86988 19.9503 8.30988 19.7403 7.90988 19.7403H6.17988C5.11988 19.7403 4.24988 18.8703 4.24988 17.8103V16.1003C4.24988 15.7103 4.03988 15.1503 3.78988 14.8503L2.43988 13.2603C1.85988 12.5703 1.85988 11.4503 2.43988 10.7603L3.78988 9.17031C4.03988 8.87031 4.24988 8.31031 4.24988 7.92031V6.20031C4.24988 5.14031 5.11988 4.27031 6.17988 4.27031H7.90988C8.29988 4.27031 8.86988 4.06031 9.16988 3.80031L10.7499 2.45031Z" stroke="#2C2C2C" stroke-width="1.5" stroke-linecap="round" stroke-linejoin="round"/>
<path d="M12 17.1104C14.8221 17.1104 17.1099 14.8226 17.1099 12.0005C17.1099 9.17839 14.8221 6.89062 12 6.89062C9.1779 6.89062 6.89014 9.17839 6.89014 12.0005C6.89014 14.8226 9.1779 17.1104 12 17.1104Z" stroke="#2C2C2C" stroke-width="1.5" stroke-linecap="round" stroke-linejoin="round"/>
</svg>
