<svg width="24" height="24" viewBox="0 0 24 24" fill="none" xmlns="http://www.w3.org/2000/svg">
<path d="M8.40002 6.5H15.6C19 6.5 19.34 8.09 19.57 10.03L20.47 17.53C20.76 19.99 20 22 16.5 22H7.51003C4.00003 22 3.24002 19.99 3.54002 17.53L4.44003 10.03C4.66003 8.09 5.00002 6.5 8.40002 6.5Z" fill="#621317" stroke="#621317" stroke-width="2" stroke-linecap="round" stroke-linejoin="round"/>
<path d="M8 8V4.5C8 3 9 2 10.5 2H13.5C15 2 16 3 16 4.5V8" stroke="#621317" stroke-width="2" stroke-linecap="round" stroke-linejoin="round"/>
<path d="M10.0969 10.1534C10.4862 10.1562 10.8697 10.2273 11.2475 10.3665C11.6254 10.5057 11.9663 10.733 12.2702 11.0483C12.5771 11.3636 12.8214 11.7898 13.0032 12.3267C13.1879 12.8608 13.2816 13.5256 13.2844 14.321C13.2844 15.0852 13.2077 15.7656 13.0543 16.3622C12.9009 16.956 12.6808 17.4574 12.3938 17.8665C12.1097 18.2756 11.7646 18.5866 11.3583 18.7997C10.9521 19.0128 10.4947 19.1193 9.98615 19.1193C9.46626 19.1193 9.00462 19.017 8.60121 18.8125C8.1978 18.608 7.86967 18.3253 7.61683 17.9645C7.36399 17.6009 7.20632 17.1832 7.14382 16.7116H8.44354C8.52876 17.0866 8.70206 17.3906 8.96342 17.6236C9.22763 17.8537 9.56854 17.9688 9.98615 17.9688C10.6254 17.9688 11.1239 17.6903 11.4819 17.1335C11.8398 16.5739 12.0202 15.7926 12.0231 14.7898H11.9549C11.8072 15.0341 11.6225 15.2443 11.4009 15.4205C11.1822 15.5966 10.9364 15.733 10.6637 15.8295C10.391 15.9261 10.0998 15.9744 9.79013 15.9744C9.28729 15.9744 8.8299 15.8509 8.41797 15.6037C8.00604 15.3565 7.67791 15.017 7.43359 14.5852C7.18928 14.1534 7.06712 13.6605 7.06712 13.1065C7.06712 12.5554 7.19212 12.0554 7.44212 11.6065C7.69496 11.1577 8.04723 10.8026 8.49893 10.5412C8.95348 10.277 9.48615 10.1477 10.0969 10.1534ZM10.1012 11.2614C9.76882 11.2614 9.46911 11.3437 9.20206 11.5085C8.93786 11.6705 8.72905 11.8906 8.57564 12.169C8.42223 12.4446 8.34553 12.7514 8.34553 13.0895C8.34553 13.4276 8.41939 13.7344 8.56712 14.0099C8.71768 14.2827 8.92223 14.5 9.18075 14.6619C9.44212 14.821 9.74041 14.9006 10.0756 14.9006C10.3256 14.9006 10.5586 14.8523 10.7745 14.7557C10.9904 14.6591 11.1793 14.5256 11.3413 14.3551C11.5032 14.1818 11.6296 13.9858 11.7205 13.767C11.8114 13.5483 11.8569 13.3182 11.8569 13.0767C11.8569 12.7557 11.7802 12.4574 11.6268 12.1818C11.4762 11.9062 11.2688 11.6847 11.0046 11.517C10.7404 11.3466 10.4393 11.2614 10.1012 11.2614ZM14.8359 18.5384V13.7372H15.7912V18.5384H14.8359ZM12.9148 16.6136V15.6584H17.7159V16.6136H12.9148Z" fill="white"/>
</svg>
