<svg width="24" height="24" viewBox="0 0 24 24" fill="none" xmlns="http://www.w3.org/2000/svg">
<path d="M10.7499 2.45031C11.4399 1.86031 12.5699 1.86031 13.2699 2.45031L14.8499 3.81031C15.1499 4.07031 15.7099 4.28031 16.1099 4.28031H17.8099C18.8699 4.28031 19.7399 5.15031 19.7399 6.21031V7.91031C19.7399 8.30031 19.9499 8.87031 20.2099 9.17031L21.5699 10.7503C22.1599 11.4403 22.1599 12.5703 21.5699 13.2703L20.2099 14.8503C19.9499 15.1503 19.7399 15.7103 19.7399 16.1103V17.8103C19.7399 18.8703 18.8699 19.7403 17.8099 19.7403H16.1099C15.7199 19.7403 15.1499 19.9503 14.8499 20.2103L13.2699 21.5703C12.5799 22.1603 11.4499 22.1603 10.7499 21.5703L9.16988 20.2103C8.86988 19.9503 8.30988 19.7403 7.90988 19.7403H6.17988C5.11988 19.7403 4.24988 18.8703 4.24988 17.8103V16.1003C4.24988 15.7103 4.03988 15.1503 3.78988 14.8503L2.43988 13.2603C1.85988 12.5703 1.85988 11.4503 2.43988 10.7603L3.78988 9.17031C4.03988 8.87031 4.24988 8.31031 4.24988 7.92031V6.20031C4.24988 5.14031 5.11988 4.27031 6.17988 4.27031H7.90988C8.29988 4.27031 8.86988 4.06031 9.16988 3.80031L10.7499 2.45031Z" stroke="#0D0D0D" stroke-width="1.5" stroke-linecap="round" stroke-linejoin="round"/>
<path d="M11.9999 13.66C13.2868 13.66 14.33 12.6168 14.33 11.33C14.33 10.0431 13.2868 9 11.9999 9C10.7131 9 9.66992 10.0431 9.66992 11.33C9.66992 12.6168 10.7131 13.66 11.9999 13.66Z" stroke="#0D0D0D" stroke-width="1.5" stroke-linecap="round" stroke-linejoin="round"/>
<path d="M16 19.3195C16 17.5195 14.21 16.0596 12 16.0596C9.79 16.0596 8 17.5195 8 19.3195" stroke="#0D0D0D" stroke-width="1.5" stroke-linecap="round" stroke-linejoin="round"/>
</svg>
