<svg width="24" height="24" viewBox="0 0 24 24" fill="none" xmlns="http://www.w3.org/2000/svg">
<path d="M9.02 2.84016L3.63 7.04016C2.73 7.74016 2 9.23016 2 10.3602V17.7702C2 20.0902 3.89 21.9902 6.21 21.9902H17.79C20.11 21.9902 22 20.0902 22 17.7802V10.5002C22 9.29016 21.19 7.74016 20.2 7.05016L14.02 2.72016C12.62 1.74016 10.37 1.79016 9.02 2.84016Z" stroke="#0D0D0D" stroke-width="1.5" stroke-linecap="round" stroke-linejoin="round"/>
<path d="M15.0164 11.9669C16.1119 11.9669 16.9999 11.0789 16.9999 9.98347C16.9999 8.88803 16.1119 8 15.0164 8C13.921 8 13.033 8.88803 13.033 9.98347C13.033 11.0789 13.921 11.9669 15.0164 11.9669Z" stroke="#0D0D0D" stroke-width="1.2" stroke-miterlimit="10" stroke-linecap="round" stroke-linejoin="round"/>
<path d="M8.98348 11.9669C10.0789 11.9669 10.9669 11.0789 10.9669 9.98347C10.9669 8.88803 10.0789 8 8.98348 8C7.88804 8 7 8.88803 7 9.98347C7 11.0789 7.88804 11.9669 8.98348 11.9669Z" stroke="#0D0D0D" stroke-width="1.2" stroke-miterlimit="10" stroke-linecap="round" stroke-linejoin="round"/>
<path d="M15.0164 18.0001C16.1119 18.0001 16.9999 17.1121 16.9999 16.0167C16.9999 14.9212 16.1119 14.0332 15.0164 14.0332C13.921 14.0332 13.033 14.9212 13.033 16.0167C13.033 17.1121 13.921 18.0001 15.0164 18.0001Z" stroke="#0D0D0D" stroke-width="1.2" stroke-miterlimit="10" stroke-linecap="round" stroke-linejoin="round"/>
<path d="M8.98348 18.0001C10.0789 18.0001 10.9669 17.1121 10.9669 16.0167C10.9669 14.9212 10.0789 14.0332 8.98348 14.0332C7.88804 14.0332 7 14.9212 7 16.0167C7 17.1121 7.88804 18.0001 8.98348 18.0001Z" stroke="#0D0D0D" stroke-width="1.2" stroke-miterlimit="10" stroke-linecap="round" stroke-linejoin="round"/>
</svg>
