<svg width="40" height="40" viewBox="0 0 40 40" fill="none" xmlns="http://www.w3.org/2000/svg">
<path d="M17.9168 4.0832C19.0668 3.09987 20.9501 3.09987 22.1168 4.0832L24.7501 6.35005C25.2501 6.78338 26.1834 7.13333 26.8501 7.13333H29.6835C31.4501 7.13333 32.9001 8.58322 32.9001 10.3499V13.1833C32.9001 13.8333 33.2501 14.7834 33.6834 15.2834L35.9501 17.9166C36.9335 19.0666 36.9335 20.95 35.9501 22.1167L33.6834 24.7499C33.2501 25.2499 32.9001 26.1833 32.9001 26.8499V29.6834C32.9001 31.4501 31.4501 32.8999 29.6835 32.8999H26.8501C26.2001 32.8999 25.2501 33.2499 24.7501 33.6832L22.1168 35.9499C20.9668 36.9332 19.0835 36.9332 17.9168 35.9499L15.2835 33.6832C14.7835 33.2499 13.8501 32.8999 13.1835 32.8999H10.3001C8.53345 32.8999 7.08346 31.4501 7.08346 29.6834V26.8332C7.08346 26.1832 6.73347 25.2499 6.31681 24.7499L4.0668 22.1C3.10013 20.95 3.10013 19.0833 4.0668 17.9333L6.31681 15.2834C6.73347 14.7834 7.08346 13.85 7.08346 13.2V10.3499C7.08346 8.58322 8.53345 7.13333 10.3001 7.13333H13.1835C13.8335 7.13333 14.7835 6.78338 15.2835 6.35005L17.9168 4.0832Z" fill="white" stroke="white" stroke-width="1.5" stroke-linecap="round" stroke-linejoin="round"/>
<path d="M16.4833 24.7003L18.9 26.567C19.2166 26.8836 19.9166 27.0337 20.3833 27.0337H23.3333C24.2666 27.0337 25.2833 26.3337 25.5166 25.4004L27.3833 19.7003C27.7666 18.617 27.0666 17.667 25.9 17.667H22.7833C22.3166 17.667 21.9333 17.2838 22 16.7338L22.3833 14.2338C22.5333 13.5338 22.0666 12.7504 21.3666 12.5171C20.75 12.2837 19.9666 12.6003 19.65 13.067L16.45 17.817" fill="#621317"/>
<path d="M16.4833 24.7003L18.9 26.567C19.2166 26.8836 19.9166 27.0337 20.3833 27.0337H23.3333C24.2666 27.0337 25.2833 26.3337 25.5166 25.4004L27.3833 19.7003C27.7666 18.617 27.0666 17.667 25.9 17.667H22.7833C22.3166 17.667 21.9333 17.2838 22 16.7338L22.3833 14.2338C22.5333 13.5338 22.0666 12.7504 21.3666 12.5171C20.75 12.2837 19.9666 12.6003 19.65 13.067L16.45 17.817" stroke="white" stroke-width="1.5" stroke-miterlimit="10"/>
<path d="M12.5 24.7006V17.0673C12.5 15.9673 12.9667 15.584 14.0667 15.584H14.85C15.9333 15.584 16.4167 15.9673 16.4167 17.0673V24.7006C16.4167 25.7839 15.95 26.184 14.85 26.184H14.0667C12.9667 26.184 12.5 25.8006 12.5 24.7006Z" fill="#621317" stroke="white" stroke-width="1.5" stroke-linecap="round" stroke-linejoin="round"/>
</svg>
