<svg width="44" height="46" viewBox="0 0 44 46" fill="none" xmlns="http://www.w3.org/2000/svg">
<g filter="url(#filter0_d_539_5359)">
<path d="M6.63663 15.5652C10.2483 -0.311448 33.7699 -0.292893 37.3632 15.5838C39.4712 24.8969 30.8448 32.7804 25.7665 37.657C22.0817 41.2135 21.9179 41.2135 18.2148 37.657C13.1548 32.7804 4.52845 24.8785 6.63663 15.5652ZM21.9999 13.1814C18.841 13.1815 16.2803 15.7422 16.2802 18.9012C16.2802 22.0602 18.8409 24.6208 21.9999 24.6209C25.159 24.6209 27.7196 22.0602 27.7196 18.9012C27.7196 15.7422 25.1589 13.1814 21.9999 13.1814Z" fill="#621317"/>
<path d="M6.63663 15.5652L6.39286 15.5098L6.3928 15.51L6.63663 15.5652ZM37.3632 15.5838L37.1194 15.639V15.639L37.3632 15.5838ZM25.7665 37.657L25.5934 37.4767L25.5929 37.4771L25.7665 37.657ZM18.2148 37.657L18.0413 37.837L18.0416 37.8373L18.2148 37.657ZM21.9999 13.1814V12.9314H21.9999L21.9999 13.1814ZM16.2802 18.9012L16.0302 18.9011V18.9012H16.2802ZM21.9999 24.6209L21.9999 24.8709H21.9999V24.6209ZM27.7196 18.9012H27.9696V18.9011L27.7196 18.9012ZM6.63663 15.5652L6.88041 15.6207C8.6556 7.81704 15.3196 3.91242 22.0066 3.917C28.6937 3.92157 35.3532 7.83534 37.1194 15.639L37.3632 15.5838L37.607 15.5286C35.7799 7.45554 28.8819 3.4217 22.007 3.417C15.132 3.41229 8.22934 7.43673 6.39286 15.5098L6.63663 15.5652ZM37.3632 15.5838L37.1194 15.639C38.1519 20.2009 36.561 24.4284 34.0525 28.1442C31.5425 31.8623 28.1381 35.033 25.5934 37.4767L25.7665 37.657L25.9397 37.8373C28.4732 35.4044 31.9211 32.1951 34.4669 28.424C37.0142 24.6506 38.6825 20.2798 37.607 15.5286L37.3632 15.5838ZM25.7665 37.657L25.5929 37.4771C24.6683 38.3695 23.9791 39.0243 23.4026 39.4577C22.8261 39.891 22.3984 40.0744 21.9975 40.0744C21.5965 40.0744 21.1676 39.8909 20.5887 39.4574C20.0098 39.024 19.3171 38.3691 18.3879 37.4767L18.2148 37.657L18.0416 37.8373C18.964 38.7232 19.6805 39.402 20.289 39.8577C20.8974 40.3133 21.4341 40.5744 21.9975 40.5744C22.5611 40.5744 23.0967 40.3131 23.703 39.8574C24.3093 39.4016 25.0223 38.7227 25.9401 37.8369L25.7665 37.657ZM18.2148 37.657L18.3882 37.477C15.8526 35.0332 12.4527 31.8579 9.94499 28.1352C7.43874 24.4146 5.84779 20.1824 6.88046 15.6204L6.63663 15.5652L6.3928 15.51C5.31729 20.2613 6.98543 24.6366 9.5303 28.4145C12.0737 32.1902 15.517 35.4042 18.0413 37.837L18.2148 37.657ZM21.9999 13.1814L21.9999 12.9314C18.7029 12.9315 16.0303 15.6041 16.0302 18.9011L16.2802 18.9012L16.5302 18.9012C16.5303 15.8803 18.979 13.4315 21.9999 13.4314L21.9999 13.1814ZM16.2802 18.9012H16.0302C16.0302 22.1983 18.7028 24.8708 21.9999 24.8709L21.9999 24.6209L21.9999 24.3709C18.979 24.3708 16.5302 21.9221 16.5302 18.9012H16.2802ZM21.9999 24.6209V24.8709C25.2971 24.8709 27.9696 22.1983 27.9696 18.9012H27.7196H27.4696C27.4696 21.9222 25.0209 24.3709 21.9999 24.3709V24.6209ZM27.7196 18.9012L27.9696 18.9011C27.9695 15.6041 25.297 12.9314 21.9999 12.9314V13.1814V13.4314C25.0209 13.4314 27.4696 15.8802 27.4696 18.9012L27.7196 18.9012Z" fill="black"/>
</g>
<defs>
<filter id="filter0_d_539_5359" x="-4" y="-3" width="52" height="52" filterUnits="userSpaceOnUse" color-interpolation-filters="sRGB">
<feFlood flood-opacity="0" result="BackgroundImageFix"/>
<feColorMatrix in="SourceAlpha" type="matrix" values="0 0 0 0 0 0 0 0 0 0 0 0 0 0 0 0 0 0 127 0" result="hardAlpha"/>
<feOffset dy="1"/>
<feGaussianBlur stdDeviation="2"/>
<feComposite in2="hardAlpha" operator="out"/>
<feColorMatrix type="matrix" values="0 0 0 0 0 0 0 0 0 0 0 0 0 0 0 0 0 0 0.25 0"/>
<feBlend mode="normal" in2="BackgroundImageFix" result="effect1_dropShadow_539_5359"/>
<feBlend mode="normal" in="SourceGraphic" in2="effect1_dropShadow_539_5359" result="shape"/>
</filter>
</defs>
</svg>
