<svg width="24" height="24" viewBox="0 0 24 24" fill="none" xmlns="http://www.w3.org/2000/svg">
<path d="M20.25 10.5V6" stroke="#2C2C2C" stroke-width="1.5" stroke-linecap="round" stroke-linejoin="round"/>
<path d="M22.5 8.25H18" stroke="#2C2C2C" stroke-width="1.5" stroke-linecap="round" stroke-linejoin="round"/>
<path d="M15.75 2.25V5.25" stroke="#2C2C2C" stroke-width="1.5" stroke-linecap="round" stroke-linejoin="round"/>
<path d="M17.25 3.75H14.25" stroke="#2C2C2C" stroke-width="1.5" stroke-linecap="round" stroke-linejoin="round"/>
<path d="M20.3121 14.3105C18.8398 14.7196 17.2853 14.7303 15.8076 14.3417C14.3298 13.953 12.9817 13.1789 11.9012 12.0984C10.8207 11.0179 10.0466 9.66983 9.6579 8.19204C9.26923 6.71426 9.28 5.15976 9.6891 3.6875L9.68934 3.68757C8.23722 4.09154 6.91629 4.86894 5.85813 5.94233C4.79998 7.01571 4.04155 8.34763 3.65838 9.80537C3.27522 11.2631 3.2807 12.7958 3.67428 14.2508C4.06787 15.7058 4.83581 17.0322 5.90161 18.098C6.96741 19.1638 8.29387 19.9317 9.74885 20.3253C11.2038 20.7189 12.7365 20.7243 14.1943 20.3412C15.652 19.958 16.9839 19.1995 18.0573 18.1414C19.1307 17.0832 19.9081 15.7623 20.312 14.3101L20.3121 14.3105Z" stroke="#2C2C2C" stroke-width="1.5" stroke-linecap="round" stroke-linejoin="round"/>
</svg>
