<svg width="40" height="40" viewBox="0 0 40 40" fill="none" xmlns="http://www.w3.org/2000/svg">
<path d="M36.6666 19.9997V14.9997C36.6666 6.66634 33.3333 3.33301 24.9999 3.33301H14.9999C6.66659 3.33301 3.33325 6.66634 3.33325 14.9997V24.9997C3.33325 33.333 6.66659 36.6663 14.9999 36.6663H19.9999" fill="white"/>
<path d="M36.6666 19.9997V14.9997C36.6666 6.66634 33.3333 3.33301 24.9999 3.33301H14.9999C6.66659 3.33301 3.33325 6.66634 3.33325 14.9997V24.9997C3.33325 33.333 6.66659 36.6663 14.9999 36.6663H19.9999" stroke="white" stroke-width="2" stroke-linecap="round" stroke-linejoin="round"/>
<path d="M34.9335 29.7335L32.2168 30.6502C31.4668 30.9002 30.8668 31.4835 30.6168 32.2502L29.7001 34.9668C28.9168 37.3168 25.6168 37.2668 24.8835 34.9168L21.8001 25.0002C21.2001 23.0335 23.0168 21.2001 24.9668 21.8168L34.9001 24.9002C37.2335 25.6335 37.2668 28.9501 34.9335 29.7335Z" fill="white" stroke="#621317" stroke-width="2" stroke-linecap="round" stroke-linejoin="round"/>
</svg>
