<svg width="40" height="40" viewBox="0 0 40 40" fill="none" xmlns="http://www.w3.org/2000/svg">
<path d="M15.2668 18.1163C15.1001 18.0997 14.9001 18.0997 14.7168 18.1163C10.7501 17.983 7.6001 14.733 7.6001 10.733C7.6001 6.64967 10.9001 3.33301 15.0001 3.33301C19.0834 3.33301 22.4001 6.64967 22.4001 10.733C22.3834 14.733 19.2334 17.983 15.2668 18.1163Z" fill="white" stroke="white" stroke-width="2" stroke-linecap="round" stroke-linejoin="round"/>
<path d="M27.35 6.66699C30.5833 6.66699 33.1833 9.28366 33.1833 12.5003C33.1833 15.6503 30.6833 18.217 27.5666 18.3337C27.4333 18.317 27.2833 18.317 27.1333 18.3337" stroke="white" stroke-width="2" stroke-linecap="round" stroke-linejoin="round"/>
<path d="M6.93345 24.267C2.90011 26.967 2.90011 31.367 6.93345 34.0503C11.5168 37.117 19.0334 37.117 23.6168 34.0503C27.6501 31.3503 27.6501 26.9503 23.6168 24.267C19.0501 21.217 11.5334 21.217 6.93345 24.267Z" fill="white" stroke="white" stroke-width="2" stroke-linecap="round" stroke-linejoin="round"/>
<path d="M30.5667 33.333C31.7667 33.083 32.9 32.5997 33.8333 31.883C36.4333 29.933 36.4333 26.7163 33.8333 24.7663C32.9166 24.0663 31.8 23.5997 30.6167 23.333" stroke="white" stroke-width="2" stroke-linecap="round" stroke-linejoin="round"/>
</svg>
