<svg width="80" height="80" viewBox="0 0 80 80" fill="none" xmlns="http://www.w3.org/2000/svg">
<path d="M40 76C59.8823 76 76 59.8823 76 40C76 20.1177 59.8823 4 40 4C20.1177 4 4 20.1177 4 40C4 59.8823 20.1177 76 40 76Z" stroke="black" stroke-opacity="0.55" stroke-width="3" stroke-miterlimit="10" stroke-linecap="round" stroke-linejoin="round"/>
<path d="M40 73.3346C58.4095 73.3346 73.3333 58.4108 73.3333 40.0013C73.3333 21.5918 58.4095 6.66797 40 6.66797C21.5905 6.66797 6.66663 21.5918 6.66663 40.0013C6.66663 58.4108 21.5905 73.3346 40 73.3346Z" fill="#C01938" stroke="#621317" stroke-width="3" stroke-miterlimit="10" stroke-linecap="round" stroke-linejoin="round" stroke-dasharray="2.5 2.5"/>
<path d="M56.3334 56.332C65.3334 47.332 65.3334 32.332 56.3334 23.332" stroke="#621317" stroke-width="3" stroke-miterlimit="10" stroke-linecap="round" stroke-linejoin="round"/>
<path d="M23.6666 23.668C14.6666 32.668 14.6666 47.668 23.6666 56.668" stroke="#621317" stroke-width="3" stroke-miterlimit="10" stroke-linecap="round" stroke-linejoin="round"/>
<path d="M46.6896 32.3428C47.7416 32.3428 48.502 33.3482 48.2157 34.3604C48.0225 35.0433 47.3992 35.5146 46.6896 35.5146H32.8834C31.8314 35.5146 31.071 34.5092 31.3573 33.497C31.5505 32.8142 32.1737 32.3428 32.8834 32.3428H46.6896ZM41.7329 53.7256C41.1204 53.7256 40.5417 53.4449 40.1625 52.964L31.4533 41.9196C31.2261 41.6314 31.0987 41.2772 31.0902 40.9103C31.0684 39.9605 31.8324 39.1787 32.7825 39.1787H35.8539C37.1032 39.1787 38.1677 38.9964 39.0475 38.6318C39.9273 38.2581 40.6003 37.7021 41.0666 36.9639C41.5328 36.2165 41.766 35.2777 41.766 34.1475C41.766 32.4795 41.2821 31.1715 40.3144 30.2236C39.3466 29.2666 37.8598 28.7881 35.8539 28.7881H32.8308C31.8092 28.7881 31.0741 27.8067 31.3613 26.8263C31.5525 26.1738 32.151 25.7256 32.8308 25.7256H35.8539C38.0006 25.7256 39.7601 26.0947 41.1325 26.833C42.5138 27.5622 43.5343 28.5648 44.1941 29.8408C44.8627 31.1077 45.1971 32.5433 45.1971 34.1475C45.1971 35.5967 44.8891 36.932 44.2733 38.1533C43.6663 39.3656 42.6897 40.3408 41.3437 41.0791C40.0064 41.8174 38.2381 42.1865 36.0387 42.1865C36.0066 42.1865 35.9887 42.2235 36.0085 42.2487L44.8455 53.4626C44.8681 53.4913 44.8803 53.5267 44.8803 53.5631C44.8803 53.6529 44.8076 53.7256 44.7179 53.7256H41.7329ZM46.6961 25.7256C47.7448 25.7256 48.5029 26.7279 48.2174 27.7371C48.0235 28.4224 47.3954 28.8934 46.6832 28.8877L36.4668 28.8046C35.4448 28.7963 34.7145 27.813 35.0018 26.8322C35.194 26.1763 35.7957 25.7256 36.4793 25.7256H46.6961Z" fill="#621317"/>
</svg>
