<svg width="16" height="16" viewBox="0 0 16 16" fill="none" xmlns="http://www.w3.org/2000/svg">
<path d="M13.8021 4.07715H10.0378" stroke="#292D32" stroke-width="0.941057" stroke-miterlimit="10" stroke-linecap="round" stroke-linejoin="round"/>
<path d="M3.76437 4.07715H1.25488" stroke="#292D32" stroke-width="0.941057" stroke-miterlimit="10" stroke-linecap="round" stroke-linejoin="round"/>
<path d="M6.27368 6.27343C7.48639 6.27343 8.46948 5.29034 8.46948 4.07764C8.46948 2.86493 7.48639 1.88184 6.27368 1.88184C5.06097 1.88184 4.07788 2.86493 4.07788 4.07764C4.07788 5.29034 5.06097 6.27343 6.27368 6.27343Z" stroke="#292D32" stroke-width="0.941057" stroke-miterlimit="10" stroke-linecap="round" stroke-linejoin="round"/>
<path d="M13.8022 10.9795H11.2927" stroke="#292D32" stroke-width="0.941057" stroke-miterlimit="10" stroke-linecap="round" stroke-linejoin="round"/>
<path d="M5.01911 10.9795H1.25488" stroke="#292D32" stroke-width="0.941057" stroke-miterlimit="10" stroke-linecap="round" stroke-linejoin="round"/>
<path d="M8.7832 13.1748C9.99591 13.1748 10.979 12.1917 10.979 10.979C10.979 9.7663 9.99591 8.7832 8.7832 8.7832C7.5705 8.7832 6.5874 9.7663 6.5874 10.979C6.5874 12.1917 7.5705 13.1748 8.7832 13.1748Z" stroke="#292D32" stroke-width="0.941057" stroke-miterlimit="10" stroke-linecap="round" stroke-linejoin="round"/>
</svg>
