<svg width="24" height="24" viewBox="0 0 24 24" fill="none" xmlns="http://www.w3.org/2000/svg">
<path d="M8.40002 6.5H15.6C19 6.5 19.34 8.09 19.57 10.03L20.47 17.53C20.76 19.99 20 22 16.5 22H7.51003C4.00003 22 3.24002 19.99 3.54002 17.53L4.44003 10.03C4.66003 8.09 5.00002 6.5 8.40002 6.5Z" stroke="#0D0D0D" stroke-width="1.5" stroke-linecap="round" stroke-linejoin="round"/>
<path d="M8 8V4.5C8 3 9 2 10.5 2H13.5C15 2 16 3 16 4.5V8" stroke="#0D0D0D" stroke-width="1.5" stroke-linecap="round" stroke-linejoin="round"/>
<path d="M8.93093 10.1534C9.32013 10.1562 9.70366 10.2273 10.0815 10.3665C10.4593 10.5057 10.8002 10.733 11.1042 11.0483C11.411 11.3636 11.6554 11.7898 11.8372 12.3267C12.0218 12.8608 12.1156 13.5256 12.1184 14.321C12.1184 15.0852 12.0417 15.7656 11.8883 16.3622C11.7349 16.956 11.5147 17.4574 11.2278 17.8665C10.9437 18.2756 10.5985 18.5866 10.1923 18.7997C9.78604 19.0128 9.32866 19.1193 8.82013 19.1193C8.30025 19.1193 7.8386 19.017 7.43519 18.8125C7.03178 18.608 6.70366 18.3253 6.45082 17.9645C6.19798 17.6009 6.04031 17.1832 5.97781 16.7116H7.27752C7.36275 17.0866 7.53604 17.3906 7.79741 17.6236C8.06161 17.8537 8.40252 17.9688 8.82013 17.9688C9.45934 17.9688 9.95792 17.6903 10.3159 17.1335C10.6738 16.5739 10.8542 15.7926 10.8571 14.7898H10.7889C10.6412 15.0341 10.4565 15.2443 10.2349 15.4205C10.0162 15.5966 9.77042 15.733 9.49769 15.8295C9.22496 15.9261 8.93377 15.9744 8.62411 15.9744C8.12127 15.9744 7.66388 15.8509 7.25195 15.6037C6.84002 15.3565 6.5119 15.017 6.26758 14.5852C6.02326 14.1534 5.9011 13.6605 5.9011 13.1065C5.9011 12.5554 6.0261 12.0554 6.2761 11.6065C6.52894 11.1577 6.88121 10.8026 7.33292 10.5412C7.78746 10.277 8.32013 10.1477 8.93093 10.1534ZM8.93519 11.2614C8.60281 11.2614 8.30309 11.3437 8.03604 11.5085C7.77184 11.6705 7.56303 11.8906 7.40962 12.169C7.25621 12.4446 7.17951 12.7514 7.17951 13.0895C7.17951 13.4276 7.25337 13.7344 7.4011 14.0099C7.55167 14.2827 7.75621 14.5 8.01474 14.6619C8.2761 14.821 8.5744 14.9006 8.90962 14.9006C9.15962 14.9006 9.39258 14.8523 9.60849 14.7557C9.8244 14.6591 10.0133 14.5256 10.1752 14.3551C10.3372 14.1818 10.4636 13.9858 10.5545 13.767C10.6454 13.5483 10.6909 13.3182 10.6909 13.0767C10.6909 12.7557 10.6142 12.4574 10.4608 12.1818C10.3102 11.9062 10.1028 11.6847 9.8386 11.517C9.5744 11.3466 9.27326 11.2614 8.93519 11.2614ZM14.2402 17.5341V11.7727H15.3865V17.5341H14.2402ZM11.9348 15.2244V14.0824H17.6962V15.2244H11.9348Z" fill="#FF383C"/>
</svg>
