<svg width="117" height="117" viewBox="0 0 117 117" fill="none" xmlns="http://www.w3.org/2000/svg">
<path fill-rule="evenodd" clip-rule="evenodd" d="M44.289 7.00158C42.8684 8.21219 42.1581 8.81753 41.3995 9.32598C39.6606 10.4915 37.7077 11.3004 35.6539 11.7059C34.758 11.8828 33.8277 11.957 31.9671 12.1055C27.2924 12.4785 24.955 12.665 23.005 13.3538C18.4946 14.9469 14.9469 18.4946 13.3538 23.005C12.665 24.955 12.4785 27.2924 12.1055 31.9671C11.957 33.8277 11.8828 34.758 11.7059 35.6539C11.3004 37.7077 10.4915 39.6606 9.32598 41.3995C8.81753 42.1581 8.21221 42.8684 7.00158 44.289C3.95987 47.8583 2.43894 49.643 1.54709 51.509C-0.515697 55.8247 -0.515697 60.8419 1.54709 65.1577C2.43895 67.0236 3.95983 68.8083 7.00158 72.3776C8.21208 73.7981 8.81755 74.5086 9.32598 75.2671C10.4915 77.0061 11.3004 78.959 11.7059 81.0127C11.8828 81.9087 11.957 82.839 12.1055 84.6995C12.4785 89.3743 12.665 91.7116 13.3538 93.6617C14.9469 98.172 18.4946 101.72 23.005 103.313C24.955 104.002 27.2924 104.188 31.9671 104.561C33.8277 104.71 34.758 104.784 35.6539 104.961C37.7077 105.366 39.6606 106.175 41.3995 107.341C42.1581 107.849 42.8684 108.454 44.289 109.665C47.8583 112.707 49.643 114.228 51.509 115.12C55.8247 117.182 60.8419 117.182 65.1577 115.12C67.0236 114.228 68.8083 112.707 72.3776 109.665C73.7982 108.454 74.5085 107.849 75.2671 107.341C77.0061 106.175 78.959 105.366 81.0127 104.961C81.9087 104.784 82.839 104.71 84.6995 104.561C89.3743 104.188 91.7117 104.002 93.6617 103.313C98.172 101.72 101.72 98.172 103.313 93.6617C104.002 91.7117 104.188 89.3743 104.561 84.6995C104.71 82.839 104.784 81.9087 104.961 81.0127C105.366 78.959 106.175 77.0061 107.341 75.2671C107.849 74.5085 108.454 73.7982 109.665 72.3776C112.707 68.8083 114.228 67.0236 115.12 65.1577C117.182 60.8419 117.182 55.8247 115.12 51.509C114.228 49.643 112.707 47.8583 109.665 44.289C108.454 42.8684 107.849 42.1581 107.341 41.3995C106.175 39.6606 105.366 37.7077 104.961 35.6539C104.784 34.758 104.71 33.8277 104.561 31.9671C104.188 27.2924 104.002 24.955 103.313 23.005C101.72 18.4946 98.172 14.9469 93.6617 13.3538C91.7116 12.665 89.3743 12.4785 84.6995 12.1055C82.839 11.957 81.9087 11.8828 81.0127 11.7059C78.959 11.3004 77.0061 10.4915 75.2671 9.32598C74.5085 8.81753 73.7982 8.21221 72.3776 7.00158C68.8083 3.95983 67.0236 2.43895 65.1577 1.54709C60.8419 -0.515697 55.8247 -0.515697 51.509 1.54709C49.643 2.43894 47.8583 3.95986 44.289 7.00158ZM83.8453 45.8683C85.6993 44.0143 85.6993 41.0083 83.8453 39.1543C81.9913 37.3003 78.9854 37.3003 77.1313 39.1543L48.8382 67.4474L39.5352 58.1444C37.6812 56.2903 34.6752 56.2903 32.8212 58.1444C30.9672 59.9984 30.9672 63.0043 32.8212 64.8584L45.4812 77.5184C47.3352 79.3724 50.3412 79.3724 52.1952 77.5184L83.8453 45.8683Z" fill="#621317"/>
</svg>
